<svg xmlns="http://www.w3.org/2000/svg" width="49.556" height="67.089" viewBox="0 0 49.556 67.089">
  <g id="noun_Certificate_1496078" transform="translate(-16.59 -4.75)">
    <g id="Сгруппировать_2087" data-name="Сгруппировать 2087" transform="translate(16.84 5)">
      <path id="Контур_20" data-name="Контур 20" d="M28.341,17.337H59.806a1.11,1.11,0,0,0,0-2.219H28.341a1.11,1.11,0,0,0,0,2.219Z" transform="translate(-19.545 -7.634)" fill="#e50019" stroke="#fff" stroke-width="0.5"/>
      <path id="Контур_21" data-name="Контур 21" d="M28.341,27.272H59.806a1.11,1.11,0,0,0,0-2.219H28.341a1.11,1.11,0,0,0,0,2.219Z" transform="translate(-19.545 -10.22)" fill="#e50019" stroke="#fff" stroke-width="0.5"/>
      <path id="Контур_22" data-name="Контур 22" d="M28.341,37.206H59.806a1.11,1.11,0,0,0,0-2.219H28.341a1.11,1.11,0,0,0,0,2.219Z" transform="translate(-19.545 -12.806)" fill="#e50019" stroke="#fff" stroke-width="0.5"/>
      <path id="Контур_23" data-name="Контур 23" d="M46.3,46.032a1.109,1.109,0,0,0-1.11-1.11H28.341a1.11,1.11,0,0,0,0,2.219H45.193A1.109,1.109,0,0,0,46.3,46.032Z" transform="translate(-19.545 -15.392)" fill="#e50019" stroke="#fff" stroke-width="0.5"/>
      <path id="Контур_24" data-name="Контур 24" d="M45.107,71.45a1.108,1.108,0,0,0,1.153-.085l4.468-3.2,4.474,3.2a1.11,1.11,0,0,0,1.755-.9V56.8a9.827,9.827,0,0,0,2.249-2.687h5.58A1.109,1.109,0,0,0,65.9,53V6.11A1.109,1.109,0,0,0,64.786,5H17.95a1.109,1.109,0,0,0-1.11,1.11V40.629h0a1.109,1.109,0,0,0,.078.4c0,.006,0,.012.005.018a1.1,1.1,0,0,0,.24.362h0L29.531,53.786h0a1.114,1.114,0,0,0,.362.241l.017.005a1.1,1.1,0,0,0,.4.079H42.25A9.832,9.832,0,0,0,44.5,56.8V70.463A1.11,1.11,0,0,0,45.107,71.45ZM43.183,49.285a7.546,7.546,0,1,1,7.546,7.546A7.555,7.555,0,0,1,43.183,49.285ZM54.738,68.3l-3.365-2.409a1.11,1.11,0,0,0-1.292,0L46.723,68.3V58.181a9.665,9.665,0,0,0,8.015,0V68.3ZM29.206,50.322l-8.578-8.583h8.578Zm2.219,1.57V40.629a1.109,1.109,0,0,0-1.11-1.11H19.059V7.219H63.677V51.892H60.13a9.765,9.765,0,1,0-18.8,0h-9.9Z" transform="translate(-16.84 -5)" fill="#e50019" stroke="#fff" stroke-width="0.5"/>
    </g>
  </g>
</svg>
