<svg xmlns="http://www.w3.org/2000/svg" width="16.558" height="18.737" viewBox="0 0 16.558 18.737">
  <g id="noun_Lock_1697214" transform="translate(-11.9 -2.363)">
    <path id="Контур_18" data-name="Контур 18" d="M27.071,9.746H24.254V6.664a4.077,4.077,0,1,0-8.149,0V9.746H13.363c-.157,0-.363,0-.363.16l-1,10.77a.4.4,0,0,0,.363.323H28.071a.322.322,0,0,0,.287-.323l-1-10.77C27.358,9.749,27.228,9.746,27.071,9.746ZM16.687,6.664a3.5,3.5,0,1,1,6.985,0V9.746H16.687Zm11.09,13.754H12.582l1-10.09H26.776Z" fill="#fff" stroke="#fdfdfd" stroke-width="0.2"/>
  </g>
</svg>
