<svg xmlns="http://www.w3.org/2000/svg" width="42.1" height="24.18" viewBox="0 0 42.1 24.18">
  <g id="Сгруппировать_2132" data-name="Сгруппировать 2132" transform="translate(-1138.95 -1194.745)">
    <path id="Контур_72" data-name="Контур 72" d="M79.943,39.8a.761.761,0,0,0-.538-.223H76.869L75.8,35.352h.862a.761.761,0,0,0,0-1.522h-7.4a.761.761,0,0,0-.761.761V49.473a.761.761,0,0,0,.761.761H70.2a4.124,4.124,0,0,0,.923,2.369H69.961a.761.761,0,0,0,0,1.522h4.372a4.144,4.144,0,0,0,4.129-3.89h.943a.761.761,0,0,0,.761-.761v-9.13A.761.761,0,0,0,79.943,39.8Zm-9.921-4.448h4.225l1.07,4.225h-5.3ZM74.333,52.6a2.622,2.622,0,1,1,2.592-3.013,2.583,2.583,0,0,1,.03.391A2.627,2.627,0,0,1,74.333,52.6Zm4.311-3.89h-.37v-.025a4.058,4.058,0,0,0-.218-.507l-.046-.091a4.14,4.14,0,0,0-.294-.477l-.056-.076a4.191,4.191,0,0,0-.375-.436l-.036-.03a4.21,4.21,0,0,0-.436-.375l-.041-.03a4.2,4.2,0,0,0-.507-.3l-.081-.046a4.145,4.145,0,0,0-.507-.218l-.1-.03a4.088,4.088,0,0,0-.558-.137h-.076a3.769,3.769,0,0,0-1.233,0h-.076a4.084,4.084,0,0,0-.558.137l-.1.03a4.15,4.15,0,0,0-.507.223l-.081.046a4.2,4.2,0,0,0-.507.3l-.036.025a4.21,4.21,0,0,0-.441.38l-.03.025a4.183,4.183,0,0,0-.38.441l-.051.066a4.135,4.135,0,0,0-.3.507l-.041.081a4.058,4.058,0,0,0-.223.538h-.365V41.119h8.623Z" transform="translate(1100.884 1164.8)"/>
    <path id="Контур_73" data-name="Контур 73" d="M40.105,53.17H15.931a.761.761,0,0,0-.761.761V59a.761.761,0,0,0,.761.761h3.647a4.124,4.124,0,0,0,.923,2.369H19.334a.761.761,0,1,0,0,1.522h4.372a4.144,4.144,0,0,0,4.129-3.89h12.27A.761.761,0,0,0,40.866,59V53.931A.761.761,0,0,0,40.105,53.17Zm-16.4,8.958A2.622,2.622,0,1,1,26.3,59.115a2.582,2.582,0,0,1,.03.391A2.627,2.627,0,0,1,23.707,62.128Zm15.638-3.89h-11.7v-.025a4.058,4.058,0,0,0-.218-.507l-.046-.091a4.139,4.139,0,0,0-.294-.477l-.056-.076a4.189,4.189,0,0,0-.375-.436l-.036-.03a4.21,4.21,0,0,0-.436-.375l-.041-.03a4.2,4.2,0,0,0-.507-.3l-.081-.046a4.144,4.144,0,0,0-.507-.218l-.1-.03a4.089,4.089,0,0,0-.558-.137H24.32a3.769,3.769,0,0,0-1.233,0h-.076a4.083,4.083,0,0,0-.558.137l-.1.03a4.148,4.148,0,0,0-.507.223l-.081.046a4.2,4.2,0,0,0-.507.3l-.036.025a4.21,4.21,0,0,0-.441.38l-.03.025a4.185,4.185,0,0,0-.38.441l-.051.066a4.134,4.134,0,0,0-.3.507l-.041.081a4.059,4.059,0,0,0-.223.538H16.692V54.707H39.345Z" transform="translate(1127.163 1155.27)"/>
    <path id="Контур_74" data-name="Контур 74" d="M36.819,26.17H12.644a.761.761,0,0,0-.761.761v3.13H9.261a.761.761,0,1,0,0,1.522h2.622v1.882H10.529a.761.761,0,0,0,0,1.522h1.354v3.272a.761.761,0,0,0,.761.761H36.819a.761.761,0,0,0,.761-.761V26.931A.761.761,0,0,0,36.819,26.17ZM36.058,37.5H13.4V34.96H15.18a.761.761,0,1,0,0-1.522H13.4V31.577h6a.761.761,0,1,0,0-1.522h-6V27.692H36.058Z" transform="translate(1130.45 1168.575)"/>
  </g>
</svg>
