<svg xmlns="http://www.w3.org/2000/svg" width="17.891" height="13.3" viewBox="0 0 17.891 13.3">
  <g id="noun_contact_1697280" transform="translate(-2.844 -17.229)">
    <path id="Контур_14" data-name="Контур 14" d="M20.555,29.964a12.051,12.051,0,0,0-7.245-3.294,4.8,4.8,0,1,0-3.052,0,12.046,12.046,0,0,0-7.233,3.292.272.272,0,0,0,.385.385c4.308-4.308,12.453-4.308,16.761,0a.272.272,0,0,0,.385-.385ZM7.53,22.125a4.251,4.251,0,1,1,4.251,4.252A4.256,4.256,0,0,1,7.53,22.125Z" transform="translate(0)" fill="#fff" stroke="#fff" stroke-width="0.2"/>
  </g>
</svg>
