<svg xmlns="http://www.w3.org/2000/svg" width="37.312" height="24.02" viewBox="0 0 37.312 24.02">
  <g id="Сгруппировать_2117" data-name="Сгруппировать 2117" transform="translate(-560.96 -1421)">
    <path id="Контур_66" data-name="Контур 66" d="M53.425,28.73H17.807a.847.847,0,0,0-.847.847V51.9a.847.847,0,0,0,.847.847H53.425a.847.847,0,0,0,.847-.847V29.577A.847.847,0,0,0,53.425,28.73Zm-.847,1.694v2.259h-33.9V30.424Zm-.023,7.041H18.677V34.377H52.556ZM18.677,51.056v-11.9H52.556v11.9Z" transform="translate(544 1392.27)"/>
    <path id="Контур_67" data-name="Контур 67" d="M62.369,50.51a3.857,3.857,0,0,0-2.728,1.13,3.89,3.89,0,1,0,0,5.533,3.89,3.89,0,1,0,2.727-6.657ZM56.914,56.6a2.2,2.2,0,1,1,1.971-1.225A2.2,2.2,0,0,1,56.914,56.6Zm5.455,0a2.18,2.18,0,0,1-1.784-.909v-.045a3.772,3.772,0,0,0,.13-.508v-.147a3.546,3.546,0,0,0,0-1.169v-.147a3.771,3.771,0,0,0-.136-.519v-.034A2.2,2.2,0,1,1,62.363,56.6Z" transform="translate(528.303 1382.788)"/>
    <path id="Контур_68" data-name="Контур 68" d="M36.938,52.2H27.407a.847.847,0,1,0,0,1.694h9.531a.847.847,0,1,0,0-1.694Z" transform="translate(539.821 1382.052)"/>
    <path id="Контур_69" data-name="Контур 69" d="M36.938,59.59H27.407a.847.847,0,1,0,0,1.694h9.531a.847.847,0,1,0,0-1.694Z" transform="translate(539.821 1378.835)"/>
  </g>
</svg>
