<svg xmlns="http://www.w3.org/2000/svg" width="18.54" height="19.219" viewBox="0 0 18.54 19.219">
  <g id="noun_download_cloud_3123786" data-name="noun_download cloud_3123786" transform="translate(-2.501 -2.007)">
    <g id="Layer_25" data-name="Layer 25" transform="translate(2.501 2.007)">
      <path id="Контур_80" data-name="Контур 80" d="M15,17.305a.687.687,0,0,1,0,.975l-2.746,2.746a.687.687,0,0,1-.227.144.645.645,0,0,1-.522,0,.687.687,0,0,1-.227-.144L8.535,18.28a.689.689,0,0,1,.975-.975l1.572,1.579V9.554a.687.687,0,0,1,1.373,0v9.33l1.572-1.579a.687.687,0,0,1,.975,0Zm5-10.078a4.806,4.806,0,0,0-3.9-1.792,4.463,4.463,0,0,0-8.458-.687,5.142,5.142,0,0,0-5.108,5.788c.3,2.7,2.76,4.511,6.062,4.511h.419a.687.687,0,0,0,0-1.373H8.6c-2.616,0-4.456-1.3-4.7-3.3a3.769,3.769,0,0,1,.92-2.98,3.81,3.81,0,0,1,2.829-1.27,3.639,3.639,0,0,1,.391,0,.687.687,0,0,0,.755-.5,3.083,3.083,0,0,1,6.048.59.688.688,0,0,0,.81.625,3.165,3.165,0,0,1,.577-.027,3.458,3.458,0,0,1,3.357,4.208,3.515,3.515,0,0,1-3.481,2.657H14.515a.687.687,0,0,0,0,1.373h1.593A4.881,4.881,0,0,0,20.913,11.3,4.806,4.806,0,0,0,20.007,7.227Z" transform="translate(-2.501 -2.007)" fill="#fff"/>
    </g>
  </g>
</svg>
