<svg xmlns="http://www.w3.org/2000/svg" width="45.366" height="55.181" viewBox="0 0 45.366 55.181">
  <g id="noun_Lock_1697214" transform="translate(-14.9 -5.363)">
    <path id="Контур_18" data-name="Контур 18" d="M59.14,25.244H50.328V18.6a12.751,12.751,0,1,0-25.49,0v6.641H16.263c-.492,0-1.135.01-1.135.5L15,59.433a1.239,1.239,0,0,0,1.135,1.011H59.267a1.008,1.008,0,0,0,.9-1.011l-.128-33.687C60.038,25.254,59.632,25.244,59.14,25.244ZM26.659,18.6c0-6.264,4.659-11.36,10.923-11.36s10.925,5.1,10.925,11.36v6.641H26.659Zm31.686,40.02H16.821l.128-31.559H58.217Z" transform="translate(0 0)" fill="#e50019" stroke="#e50019" stroke-width="0.2"/>
  </g>
</svg>
