<svg xmlns="http://www.w3.org/2000/svg" width="29.783" height="32.891" viewBox="0 0 29.783 32.891">
  <path id="Контур_70" data-name="Контур 70" d="M47.281,42.329V27.3a.729.729,0,0,0-.729-.729H44.607V16.889a.729.729,0,0,0-.729-.729h-10.4a.729.729,0,0,0-.729.729v9.682H30.8a.729.729,0,0,0-.729.729v15H29.4a4.506,4.506,0,0,0-1.73-1.725V16.889a.729.729,0,0,0-.729-.729H21.651a2.221,2.221,0,0,0,0,4.442h1.575V40.584a4.525,4.525,0,1,0,6.168,6.158H46.926a2.216,2.216,0,0,0,.355-4.413ZM21.651,19.139a.763.763,0,0,1,0-1.526H26.21V40.059l-.277-.034h-.039a4.636,4.636,0,0,0-.889,0h-.044l-.272.034V19.869a.729.729,0,0,0-.729-.729Zm6.858,25.717a3.028,3.028,0,0,1-.228.875,3.077,3.077,0,1,1-1.7-4.059l.073.024a3.02,3.02,0,0,1,1.866,2.809A3.121,3.121,0,0,1,28.509,44.856Zm9.405-27.219H39.46v2.688l-.486-.209a.729.729,0,0,0-.574,0l-.486.209Zm-3.7,0h2.246v3.791a.729.729,0,0,0,1.016.671l1.191-.535,1.215.52a.729.729,0,0,0,1.035-.656V17.618h2.246v8.953H34.206Zm6.012,10.392v5L38.969,32.5a.729.729,0,0,0-.574,0l-1.254.535v-5Zm-8.676,0h4.141v6.1a.729.729,0,0,0,1.03.671l1.944-.846,1.983.851a.729.729,0,0,0,1.016-.671v-6.11H45.8V42.3H31.547ZM46.926,45.284H29.914a.548.548,0,0,1,.024-.2c.024-.063,0-.087,0-.136v-.992a.645.645,0,0,0-.024-.2H46.926a.763.763,0,1,1,0,1.521Z" transform="translate(-19.43 -16.16)"/>
</svg>
