<svg xmlns="http://www.w3.org/2000/svg" width="60.624" height="60.556" viewBox="0 0 60.624 60.556">
  <g id="noun_european_2335629" transform="translate(-15.27 -15)">
    <g id="Calque_2" data-name="Calque 2" transform="translate(15.27 15)">
      <g id="Calque_1" data-name="Calque 1">
        <path id="Контур_25" data-name="Контур 25" d="M16.09,49.059h0l.681-.494Zm4.462-16.127a3.244,3.244,0,0,1-.221.732c.085-.255.153-.494.238-.732Zm8.719,38.946h0l.1-.392a1.69,1.69,0,0,1-.1.443Zm0-45.656h0l.681-.494Zm1.516-4.751h0c.085-.238.153-.477.238-.732Zm2.571,47.478h0c.153.477.307.92.46,1.413A14.183,14.183,0,0,1,33.358,69Zm.9-42.744-.409-.289.426.324Zm-.324,45.5.341.238h0Zm8.515-48.942h0c.085-.255.153-.511.238-.766ZM43.967,70.72h0l.46-1.43c-.153.494-.307.954-.477,1.43Zm0-52.791h0a2.765,2.765,0,0,1,.221-.7Zm.92,55.737-.868.647.886-.63Zm0-58.666h0c.1.255.187.511.272.749Zm.732,54.954c.085.238.17.477.238.715h0Zm.528,4.649,1.294.92A5.722,5.722,0,0,0,46.147,74.6Zm-.221-56.589a2.173,2.173,0,0,0-.238-.681,2.362,2.362,0,0,0,.221.7h0ZM55.615,72h0l.341-.238Zm5.109,0-.341-.8a2.932,2.932,0,0,0,.238.783h0Z" transform="translate(-14.694 -15)" fill="#e50019"/>
        <path id="Контур_26" data-name="Контур 26" d="M31.56,19.883l.255-.783c-.085.255-.153.511-.238.766h0Z" transform="translate(-3.819 -12.118)" fill="#e50019"/>
        <path id="Контур_27" data-name="Контур 27" d="M32.46,17.028l.238-.7a2.765,2.765,0,0,1-.221.7Z" transform="translate(-3.187 -14.065)" fill="#e50019"/>
        <path id="Контур_28" data-name="Контур 28" d="M33.007,15l.255.783a2.361,2.361,0,0,0-.272-.749Z" transform="translate(-2.814 -15)" fill="#e50019"/>
        <path id="Контур_29" data-name="Контур 29" d="M36.825,17.018H33.691c-.085-.238-.153-.477-.221-.7.085.221.153.46.238.681Z" transform="translate(-2.477 -14.072)" fill="#e50019"/>
        <path id="Контур_30" data-name="Контур 30" d="M18.818,25.56a2.622,2.622,0,0,1-.238.732,2.8,2.8,0,0,1,.221-.732Z" transform="translate(-12.943 -7.577)" fill="#e50019"/>
        <path id="Контур_31" data-name="Контур 31" d="M39.3,48.521l.341-.221-.341.238Z" transform="translate(1.622 8.408)" fill="#e50019"/>
        <path id="Контур_32" data-name="Контур 32" d="M42.338,48.763h0c-.085-.272-.17-.528-.238-.783l.255.8Z" transform="translate(3.59 8.183)" fill="#e50019"/>
        <path id="Контур_33" data-name="Контур 33" d="M23.83,48.6a1.285,1.285,0,0,1,.136-.409l-.1.392Z" transform="translate(-9.253 8.33)" fill="#e50019"/>
        <path id="Контур_34" data-name="Контур 34" d="M26.237,46.71c.136.46.29.92.443,1.413-.153-.494-.307-.937-.46-1.413Z" transform="translate(-7.573 7.29)" fill="#e50019"/>
        <path id="Контур_35" data-name="Контур 35" d="M26.911,48.528h0l-.341-.238Z" transform="translate(-7.327 8.401)" fill="#e50019"/>
        <path id="Контур_36" data-name="Контур 36" d="M16.771,34.75l-.681.494h0Z" transform="translate(-14.694 -1.117)" fill="#e50019"/>
        <path id="Контур_37" data-name="Контур 37" d="M23.83,21.817l.681-.477-.681.494Z" transform="translate(-9.253 -10.543)" fill="#e50019"/>
        <path id="Контур_38" data-name="Контур 38" d="M24.72,19.132l.255-.732c-.085.255-.153.494-.238.732Z" transform="translate(-8.627 -12.61)" fill="#e50019"/>
        <path id="Контур_39" data-name="Контур 39" d="M26.946,21.764l-.426-.324.409.289Z" transform="translate(-7.362 -10.473)" fill="#e50019"/>
        <path id="Контур_40" data-name="Контур 40" d="M32.92,46.89l-.46,1.43h0C32.613,47.827,32.767,47.367,32.92,46.89Z" transform="translate(-3.187 7.417)" fill="#e50019"/>
        <path id="Контур_41" data-name="Контур 41" d="M33.366,49.45h0l-.886.63Z" transform="translate(-3.173 9.216)" fill="#e50019"/>
        <path id="Контур_42" data-name="Контур 42" d="M33.47,47.29l.255.715h0Z" transform="translate(-2.477 7.698)" fill="#e50019"/>
        <path id="Контур_43" data-name="Контур 43" d="M35.034,50.851,33.74,50A8.409,8.409,0,0,1,35.034,50.851Z" transform="translate(-2.287 9.603)" fill="#e50019"/>
        <path id="Контур_44" data-name="Контур 44" d="M31.363,21.515l.255-.732c.238-.732.46-1.447.732-2.231l.255.766c.17.511.341.988.494,1.465s.153.477.238.715H36.42l-2.5,1.839c.221.715.443,1.4.7,2.163l.255.766h0l-.426-.324-.9-.6-1.209-.868-.6.426c-.392.307-.8.579-1.226.886l-.681.494h0l.477-1.516c.153-.477.307-.954.443-1.413l-2.435-1.822ZM17.978,48.166l-.63.46-.681.494h0c.358-1.09.63-1.992.937-2.929l-.579-.443-.511-.443-1.243-.937h2.946c.324-.988.63-1.873.988-2.963.375,1.073.664,1.975.988,2.929h3.133l-1.907,1.413-.6.443c.289.937.579,1.839.937,2.929l-1.907-1.362-.664-.409-.6.426Zm7.237,14.117-2.5-1.805L20.191,62.3c.187-.545.341-1.039.494-1.533l.46-1.43-2.469-1.771h3.031l.494-1.43c.153-.494.324-.988.511-1.533l.971,2.963h3.048l-2.5,1.856C24.585,60.291,24.875,61.211,25.215,62.283Zm-.937-29.307.937,2.946h0l-1.277-.937L22.712,34.1l-2.52,1.839c.255-.8.477-1.516.715-2.231a2.8,2.8,0,0,1,.221-.732l-2.486-1.839h3.082c.324-.937.613-1.822.971-2.895.187.528.358,1,.511,1.482s.307.954.477,1.43h3.048Zm10.1,37.465a2.722,2.722,0,0,0,.238.749l.255.783h0l-.341-.238-.324-.238-1.822-1.328-1.192.851c-.409.289-.851.6-1.311.954h0a1.285,1.285,0,0,1,.136-.409c.051-.136.119-.375.119-.375.238-.766.443-1.447.664-2.146-.783-.6-1.567-1.158-2.469-1.822h3.082l.46-1.413c.153-.494.324-.988.511-1.533l.971,2.895h3.133l-2.52,1.873c.1.443.255.868.409,1.362ZM48,75.549,46.723,74.6h0l-1.26-.92-.886.63-.937.664-.681.494c.341-1.107.63-1.992.92-2.946l-1.158-.851-1.26-.937h3c.17-.477.324-.937.477-1.413l.255-.749.272-.783h0c.187.528.341,1,.494,1.482s.17.477.238.715l.255.715h3.065l-2.35,1.822c.238.937.511,1.822.851,2.929Zm1.584-57.491c-.954.681-1.7,1.26-2.5,1.856.307.954.6,1.856.937,2.946l-.664-.494-1.6-1.141-.29-.29-1.7,1.328a2.266,2.266,0,0,0-.324.238l-.341.255h0l.255-.783c.238-.749.443-1.447.681-2.163l-.6-.443L42.057,18.4l-.681-.494h3.1l.238-.7c.238-.681.46-1.379.732-2.2h0l.255.783.477,1.447c.085.221.153.46.238.681h3.1ZM60.96,71.19l.255.8h0l-.664-.494-.63-.443-1.192-.868-1.856,1.328-.324.238-.341.238h0c.153-.511.324-1,.477-1.482l.46-1.447-2.452-1.805h3.031c.324-.971.63-1.873.988-2.963l.988,2.929h3.1l-2.52,1.771C60.5,69.708,60.789,70.389,60.96,71.19Zm-.681-47.852.92,2.929-.664-.477L59.291,24.9l-.6-.426-2.5,1.805.937-2.946-2.469-1.822h3.048c.085-.238.153-.477.238-.715s.324-.971.494-1.465l.255-.783.255.766c.17.494.324.954.477,1.43s.153.477.238.715H62.8ZM64.2,31.12h3.1c.324-.92.613-1.822.971-2.895h0c.17.528.324,1.022.494,1.5s.307.954.477,1.43h3.1l-.681.494-1.822,1.345a2.883,2.883,0,0,0,.221.715c.068.238.119.358.17.545s.238.715.358,1.107.119.392.187.6l-2.5-1.822L65.9,35.939c.341-1.056.63-1.958.937-2.946l-1.175-.886-1.311-.971Zm6.59,31.164-2.5-1.805-.613.443-1.226.886-.664.477h0a2.4,2.4,0,0,1,.238-.749l.46-1.447a2.882,2.882,0,0,1,.221-.715l-2.367-1.805h3.014c.324-.954.63-1.873,1-2.946.358,1.056.647,1.958.971,2.912h3.1l-2.5,1.856Zm3.627-13.232-2.537-1.7-2.571,1.7.477-1.533.443-1.413c-.783-.562-1.533-1.124-2.435-1.805H70.82c.324-.988.63-1.907.988-2.963l.971,2.929h3.116l-2.452,1.89C73.749,47.076,74.021,48,74.413,49.052Z" transform="translate(-15.27 -14.993)" fill="#e50019"/>
      </g>
    </g>
  </g>
</svg>
