<svg xmlns="http://www.w3.org/2000/svg" width="26.672" height="31.411" viewBox="0 0 26.672 31.411">
  <g id="noun_quality_2423228" transform="translate(-20.745 -15.534)">
    <path id="Контур_63" data-name="Контур 63" d="M47.417,28.881a13.335,13.335,0,1,0-17.948,12.5v4.883a.684.684,0,0,0,.912.643l3.693-1.368,3.693,1.368a.684.684,0,0,0,.912-.643V41.381a13.285,13.285,0,0,0,8.739-12.5ZM37.328,45.293l-3.009-1.108a.684.684,0,0,0-.456,0l-3.009,1.108V41.814l.356.078.36.077.433.073.419.064.342.032c.169,0,.337.036.511.046H33.4c.233,0,.456.023.7.023s.456,0,.716-.023h.114a4.681,4.681,0,0,0,.5-.046l.36-.036.41-.064.456-.073.36-.077.351-.077Zm.456-5.015c-.2.068-.4.128-.606.182a12,12,0,0,1-6.209,0c-.2-.055-.406-.114-.611-.182a11.967,11.967,0,1,1,7.426,0Z"/>
    <path id="Контур_64" data-name="Контур 64" d="M47.6,32.687l-.456-.775a1.614,1.614,0,0,1-.223-1.144l.178-.912a2.991,2.991,0,0,0-1.969-3.41l-.862-.292a1.614,1.614,0,0,1-.912-.757l-.456-.8a2.991,2.991,0,0,0-3.7-1.368l-.848.328a1.614,1.614,0,0,1-1.176,0l-.848-.328a2.991,2.991,0,0,0-3.7,1.368l-.456.8a1.609,1.609,0,0,1-.912.752l-.862.292a2.991,2.991,0,0,0-1.892,3.415l.182.912a1.609,1.609,0,0,1-.205,1.153l-.456.775a2.991,2.991,0,0,0,.661,3.87l.711.584a1.614,1.614,0,0,1,.588,1.017l.137.912a3.009,3.009,0,0,0,3.018,2.53h.912a1.618,1.618,0,0,1,1.1.4l.684.6a2.991,2.991,0,0,0,3.939,0l.684-.6a1.614,1.614,0,0,1,1.1-.4h.912a3,3,0,0,0,3.018-2.53l.137-.912a1.614,1.614,0,0,1,.579-1.017l.711-.584A2.991,2.991,0,0,0,47.6,32.687ZM46.064,35.5l-.711.57a2.977,2.977,0,0,0-1.085,1.878l-.137.912a1.632,1.632,0,0,1-1.637,1.368h-.912a2.977,2.977,0,0,0-2.033.743l-.684.6a1.623,1.623,0,0,1-2.134,0l-.684-.6a2.977,2.977,0,0,0-1.969-.743h-.966a1.623,1.623,0,0,1-1.637-1.368l-.137-.912a2.977,2.977,0,0,0-1.085-1.878l-.711-.57a1.618,1.618,0,0,1-.369-2.1l.456-.775A2.977,2.977,0,0,0,30,30.49l-.178-.912a1.623,1.623,0,0,1,1.067-1.846l.862-.292a2.977,2.977,0,0,0,1.659-1.39l.456-.8a1.623,1.623,0,0,1,2.006-.729l.848.328a2.977,2.977,0,0,0,2.165,0l.848-.328a1.623,1.623,0,0,1,2.006.729l.456.8a2.977,2.977,0,0,0,1.659,1.4l.862.292a1.623,1.623,0,0,1,1.067,1.846l-.178.912a2.977,2.977,0,0,0,.374,2.134l.456.775a1.618,1.618,0,0,1-.369,2.1Z" transform="translate(-3.726 -4.08)"/>
    <path id="Контур_65" data-name="Контур 65" d="M48.03,33.825l-4.1-.456-1.714-3.757a.684.684,0,0,0-1.245,0l-1.71,3.743-4.1.456A.684.684,0,0,0,34.773,35l3.041,2.781-.821,4.048A.684.684,0,0,0,38,42.555l3.592-2.01,3.592,2.033a.684.684,0,0,0,1.008-.729l-.821-4.071,3.059-2.767a.684.684,0,0,0-.383-1.185Zm-3.866,3.228a.684.684,0,0,0-.21.638l.6,2.959-2.626-1.5a.684.684,0,0,0-.675,0l-2.626,1.5.6-2.959a.684.684,0,0,0-.21-.638L36.8,35.014l3-.342a.684.684,0,0,0,.543-.4l1.254-2.735,1.254,2.735a.684.684,0,0,0,.543.4l3,.342Z" transform="translate(-7.511 -7.442)"/>
  </g>
</svg>
