<svg xmlns="http://www.w3.org/2000/svg" width="9.029" height="13.758" viewBox="0 0 9.029 13.758">
  <g id="noun_Arrow_2367823" transform="translate(-37.418 -30.829)">
    <g id="Сгруппировать_2080" data-name="Сгруппировать 2080" transform="translate(41.389 30.829)">
      <path id="Контур_7" data-name="Контур 7" d="M49.024,44.256a.538.538,0,0,1-.538-.538V31.367a.538.538,0,1,1,1.076,0v12.35A.538.538,0,0,1,49.024,44.256Z" transform="translate(-48.486 -30.829)" fill="#e50019"/>
    </g>
    <g id="Сгруппировать_2081" data-name="Сгруппировать 2081" transform="translate(37.418 39.563)">
      <path id="Контур_8" data-name="Контур 8" d="M41.928,60.193a.538.538,0,0,1-.38-.156L37.577,56.09a.538.538,0,0,1,.759-.764L41.928,58.9l3.6-3.571a.538.538,0,1,1,.757.765l-3.981,3.948A.537.537,0,0,1,41.928,60.193Z" transform="translate(-37.418 -55.169)" fill="#e50019"/>
    </g>
  </g>
</svg>
