<svg xmlns="http://www.w3.org/2000/svg" width="58.457" height="56.654" viewBox="0 0 58.457 56.654">
  <g id="noun_footwear_2848135" transform="translate(0 -1.6)">
    <g id="Сгруппировать_2101" data-name="Сгруппировать 2101" transform="translate(0 1.6)">
      <g id="Сгруппировать_2093" data-name="Сгруппировать 2093" transform="translate(0 30.959)">
        <g id="Сгруппировать_2088" data-name="Сгруппировать 2088">
          <path id="Контур_45" data-name="Контур 45" d="M18.183,80.246a9.912,9.912,0,0,1-1.345-.058A55.892,55.892,0,0,1,4.093,78.142a5.688,5.688,0,0,1,.935-11.109c7.542-.935,22.626-6.548,29.525-11.869,1.812-1.4,3.391-.117,4.911,1.052a7.405,7.405,0,0,1,.76.643,2.079,2.079,0,0,1,.819,1.7,2.161,2.161,0,0,1-.819,1.7,37.647,37.647,0,0,1-6.373,3.859.668.668,0,1,1-.526-1.228A34.842,34.842,0,0,0,39.465,59.2a.838.838,0,0,0,.292-.643.939.939,0,0,0-.292-.643c-.292-.234-.526-.409-.819-.643-1.7-1.345-2.339-1.754-3.274-1.052C28.122,61.83,12.921,67.442,5.145,68.378a4.343,4.343,0,0,0-3.8,4.268A4.438,4.438,0,0,0,4.5,76.855,56.1,56.1,0,0,0,16.9,78.843,52.254,52.254,0,0,0,36.6,75.16l.468-.175,2.163,2.4a.505.505,0,0,0,.351.175H55.017a.524.524,0,0,0,.526-.526V73.815l.058-.175c2.28-4.21,1.929-10.524-.643-14.617a31.278,31.278,0,0,1-12.512.585.678.678,0,0,1,.175-1.345,28.523,28.523,0,0,0,12.395-.7l.468-.175.292.409a16.94,16.94,0,0,1,1.111,16.254v2.982A1.884,1.884,0,0,1,55.017,78.9H39.582a1.9,1.9,0,0,1-1.345-.585l-1.52-1.7A57.973,57.973,0,0,1,18.183,80.246Z" transform="translate(0 -54.551)" fill="#e50019"/>
        </g>
        <g id="Сгруппировать_2089" data-name="Сгруппировать 2089" transform="translate(39.699 18.855)">
          <path id="Контур_46" data-name="Контур 46" d="M84.446,88.086h-15.9a.643.643,0,0,1,0-1.286h15.9a.643.643,0,0,1,0,1.286Z" transform="translate(-67.9 -86.8)" fill="#e50019"/>
        </g>
        <g id="Сгруппировать_2090" data-name="Сгруппировать 2090" transform="translate(25.701 6.027)">
          <path id="Контур_47" data-name="Контур 47" d="M46.556,69.736a.643.643,0,0,1-.585-.351l-1.929-3.508a.682.682,0,1,1,1.169-.7l1.929,3.508a.717.717,0,0,1-.234.935A.43.43,0,0,1,46.556,69.736Z" transform="translate(-43.959 -64.859)" fill="#e50019"/>
        </g>
        <g id="Сгруппировать_2091" data-name="Сгруппировать 2091" transform="translate(22.369 7.43)">
          <path id="Контур_48" data-name="Контур 48" d="M40.856,72.136a.643.643,0,0,1-.585-.351l-1.929-3.508a.682.682,0,0,1,1.169-.7l1.929,3.508a.717.717,0,0,1-.234.935A.831.831,0,0,1,40.856,72.136Z" transform="translate(-38.259 -67.259)" fill="#e50019"/>
        </g>
        <g id="Сгруппировать_2092" data-name="Сгруппировать 2092" transform="translate(19.328 8.658)">
          <path id="Контур_49" data-name="Контур 49" d="M35.656,74.236a.643.643,0,0,1-.585-.351l-1.929-3.508a.682.682,0,1,1,1.169-.7l1.929,3.508a.717.717,0,0,1-.234.935A.494.494,0,0,1,35.656,74.236Z" transform="translate(-33.059 -69.359)" fill="#e50019"/>
        </g>
      </g>
      <g id="Сгруппировать_2100" data-name="Сгруппировать 2100" transform="translate(8.178)">
        <g id="Сгруппировать_2094" data-name="Сгруппировать 2094" transform="translate(18.748)">
          <path id="Контур_50" data-name="Контур 50" d="M52.98,31.769a.438.438,0,0,1-.292-.058.681.681,0,0,1-.292-.935,33.732,33.732,0,0,0,1.579-3.391l.175-.468,3.216.175a.632.632,0,0,0,.409-.175L68.707,15.983a.438.438,0,0,0,0-.7L66.427,13l-.058-.058A15.5,15.5,0,0,0,55.611,3.062a32.776,32.776,0,0,1-8.478,9.3.667.667,0,1,1-.819-1.052,30.6,30.6,0,0,0,8.3-9.238l.234-.468.526.058a16.971,16.971,0,0,1,12.278,10.7L69.7,14.4a1.907,1.907,0,0,1,0,2.631L58.709,27.91a1.766,1.766,0,0,1-1.4.526l-2.28-.117c-.409.935-.877,1.988-1.462,3.04A.609.609,0,0,1,52.98,31.769Z" transform="translate(-46.053 -1.6)" fill="#e50019"/>
        </g>
        <g id="Сгруппировать_2095" data-name="Сгруппировать 2095" transform="translate(0 10.319)">
          <path id="Контур_51" data-name="Контур 51" d="M14.638,50.324a.831.831,0,0,1-.351-.117.661.661,0,0,1-.175-.935c4.327-6.665,9.939-19.411,10.992-27.187.292-2.28,2.28-2.514,4.21-2.689.292-.058.643-.058.994-.117a2.067,2.067,0,0,1,2.339,2.339,35.543,35.543,0,0,1-1.812,7.25.684.684,0,1,1-1.286-.468A36.771,36.771,0,0,0,31.3,21.442a.7.7,0,0,0-.234-.643.879.879,0,0,0-.643-.234c-.351.058-.7.058-.994.117-2.163.234-2.923.409-3.04,1.579-1.052,8.068-6.665,20.814-11.226,27.713A.562.562,0,0,1,14.638,50.324Z" transform="translate(-13.987 -19.249)" fill="#e50019"/>
        </g>
        <g id="Сгруппировать_2096" data-name="Сгруппировать 2096" transform="translate(27.837 10.524)">
          <path id="Контур_52" data-name="Контур 52" d="M62.243,32.112a.664.664,0,0,1-.468-.175.711.711,0,0,1,0-.935L73,19.775a.661.661,0,0,1,.935.935L62.711,31.936A.664.664,0,0,1,62.243,32.112Z" transform="translate(-61.6 -19.6)" fill="#e50019"/>
        </g>
        <g id="Сгруппировать_2097" data-name="Сгруппировать 2097" transform="translate(8.922 22.596)">
          <path id="Контур_53" data-name="Контур 53" d="M33.78,42.676H33.6l-3.859-1.111a.667.667,0,0,1,.351-1.286l3.859,1.111a.665.665,0,0,1,.468.819A.634.634,0,0,1,33.78,42.676Z" transform="translate(-29.248 -40.248)" fill="#e50019"/>
        </g>
        <g id="Сгруппировать_2098" data-name="Сгруппировать 2098" transform="translate(7.519 25.929)">
          <path id="Контур_54" data-name="Контур 54" d="M31.38,48.376H31.2l-3.859-1.111a.667.667,0,0,1,.351-1.286l3.859,1.111a.665.665,0,0,1,.468.819A.634.634,0,0,1,31.38,48.376Z" transform="translate(-26.848 -45.948)" fill="#e50019"/>
        </g>
        <g id="Сгруппировать_2099" data-name="Сгруппировать 2099" transform="translate(6.291 28.969)">
          <path id="Контур_55" data-name="Контур 55" d="M29.28,53.576H29.1l-3.859-1.111a.667.667,0,1,1,.351-1.286l3.859,1.111a.665.665,0,0,1,.468.819A.684.684,0,0,1,29.28,53.576Z" transform="translate(-24.748 -51.148)" fill="#e50019"/>
        </g>
      </g>
    </g>
  </g>
</svg>
