<svg xmlns="http://www.w3.org/2000/svg" width="116.051" height="50.85" viewBox="0 0 116.051 50.85">
  <g id="Сгруппировать_2106" data-name="Сгруппировать 2106" transform="translate(-139.654 -40.184)">
    <path id="Контур_12" data-name="Контур 12" d="M214.145,392.724a5.551,5.551,0,0,1,1.384,3.321,4.159,4.159,0,0,1-1.423,3.322,5.277,5.277,0,0,1-3.559,1.186h-8.7a6.03,6.03,0,0,1-3.994-1.225,4.717,4.717,0,0,1-1.858-3.757q0-2.412,2.1-2.412a1.694,1.694,0,0,1,1.345.593,2.01,2.01,0,0,1,.514,1.424,1.416,1.416,0,0,0,.356,1.146,2.884,2.884,0,0,0,1.384.237h8.581a4.322,4.322,0,0,0,1.067-.079.365.365,0,0,0,.238-.4q0,.04-.711-1.147L197.3,377.3a5.445,5.445,0,0,1-1.305-3.282,4.419,4.419,0,0,1,2.1-3.836,5.886,5.886,0,0,1,3.282-.712h8.383a5.517,5.517,0,0,1,3.875,1.305,5.107,5.107,0,0,1,1.9,3.8q0,2.334-2.056,2.333a1.66,1.66,0,0,1-1.9-1.858,1.489,1.489,0,0,0-.435-1.266,2.445,2.445,0,0,0-1.462-.317h-8.383q-1.345,0-1.345.554a2.246,2.246,0,0,0,.593,1.107Zm16.964-1.028,2.056,3.559,1.186-3.559.4-9.925a4.789,4.789,0,0,1,.356-1.977,1.579,1.579,0,0,1,1.542-.751,1.459,1.459,0,0,1,1.5.83,4.007,4.007,0,0,1,.356,1.9l-.395,10.676-1.858,5.655-.593,1.661a1.435,1.435,0,0,1-1.345.79h-1.464q-.79,0-1.581-1.225L229.21,396.2l-2.056,3.124q-.791,1.225-1.582,1.225h-1.463a1.37,1.37,0,0,1-1.067-.434,7.325,7.325,0,0,1-.87-2.017l-1.858-5.655-.4-10.676a3.989,3.989,0,0,1,.277-1.858,1.609,1.609,0,0,1,1.581-.87q1.78,0,1.9,2.728l.4,9.925,1.186,3.559,2.056-3.559v-3.519q0-2.689,1.9-2.689t1.9,2.689Zm18.822,8.857a4.108,4.108,0,0,1-2.847-1.027l-1.621-1.464a6.164,6.164,0,0,1-1.542-1.9,5.966,5.966,0,0,1-.395-2.412v-7.394a7.942,7.942,0,0,1,.356-2.688,5.268,5.268,0,0,1,1.5-1.9l1.344-1.147a6.324,6.324,0,0,1,2.056-1.3,6.44,6.44,0,0,1,2.135-.277H254.4a7.7,7.7,0,0,1,2.333.277,6.234,6.234,0,0,1,1.858,1.107l1.542,1.225a4.982,4.982,0,0,1,1.621,2.1,9.134,9.134,0,0,1,.356,2.925v3.045a3.555,3.555,0,0,1-.514,2.293,2.813,2.813,0,0,1-2.1.553H247.32v1.266a1.726,1.726,0,0,0,.554,1.147l.949,1.028a3.454,3.454,0,0,0,2.531.712H259.5q2.61,0,2.61,1.938,0,1.9-2.61,1.9Zm-2.61-11.823h10.993V386.4a2.356,2.356,0,0,0-.474-1.78l-1.463-1.265a2.788,2.788,0,0,0-1.819-.474h-3.2a3.336,3.336,0,0,0-1.937.435l-1.305.949a2.038,2.038,0,0,0-.791,1.74Zm30.8-9.687q1.779,0,3.756,2.1l.633.672v-8.066q0-2.609,1.9-2.609t1.9,2.609v24.12q0,2.689-1.9,2.688t-1.9-2.57v-.237l-.83.87a5.221,5.221,0,0,1-3.638,1.937h-3.678a4.878,4.878,0,0,1-3.243-1.344l-1.3-1.146a6.985,6.985,0,0,1-1.661-2.017,5.8,5.8,0,0,1-.435-2.411v-7.711a5.87,5.87,0,0,1,.435-2.492,6.2,6.2,0,0,1,1.661-1.937l1.3-1.107a5.456,5.456,0,0,1,3.639-1.344Zm-6.6,13.088q0,2.452.593,2.926l1.146.909c.264.211.514.4.752.554a1.39,1.39,0,0,0,.672.2h2.688a3.043,3.043,0,0,0,1.859-.949L282,393.357a1.588,1.588,0,0,0,.514-1.147v-4.824a1.58,1.58,0,0,0-.317-.949l-.791-.751-2.175-1.859a3.174,3.174,0,0,0-1.859-.949h-2.688a1.245,1.245,0,0,0-.672.2q-.08.039-.752.553l-1.146.909q-.594.475-.593,2.927Zm30.447,4.587h2.847q2.609,0,2.609,1.938,0,1.9-2.609,1.9h-9.648q-2.61,0-2.61-1.9,0-1.937,2.61-1.937h3.005v-13.84h-3.005q-2.61,0-2.61-1.937,0-1.9,2.61-1.9h3.994a3.2,3.2,0,0,1,2.254.553,2.9,2.9,0,0,1,.553,2.1Zm-5.734-25.425a1.591,1.591,0,0,1,1.78-1.819h2.174a1.591,1.591,0,0,1,1.779,1.819v1.819a1.591,1.591,0,0,1-1.779,1.819h-2.174a1.591,1.591,0,0,1-1.78-1.819Zm8.674,9.554a3.25,3.25,0,1,1,3.25,3.25A3.251,3.251,0,0,1,304.906,380.848Zm2.042-1.455H308.3a1.348,1.348,0,0,1,.549.1.688.688,0,0,1,.41.688.765.765,0,0,1-.109.427.779.779,0,0,1-.3.268.588.588,0,0,1,.255.182.646.646,0,0,1,.1.366l.014.39a1.251,1.251,0,0,0,.028.247l.127.244h-.483l-.051-.327-.024-.485a.408.408,0,0,0-.212-.382.872.872,0,0,0-.355-.053h-.9V382.3h-.394Zm1.305,1.333a.76.76,0,0,0,.438-.111.45.45,0,0,0,.163-.4.43.43,0,0,0-.226-.424.737.737,0,0,0-.323-.059h-.962v.994Zm-2.985.122a2.888,2.888,0,1,1,2.887,2.888A2.888,2.888,0,0,1,305.269,380.848Z" transform="translate(-55.701 -329.29)" fill="#fff" fill-rule="evenodd"/>
    <path id="Контур_13" data-name="Контур 13" d="M199.677,474.721a.871.871,0,0,1-.986.986H195.8v1.98h-.986v-4.945h3.875a.979.979,0,0,1,.986.985Zm-.986,0v-.994H195.8v.994Zm10.438-.037h-.994v-.995h-2.544v3.96h-.986V472.7h3.53a.875.875,0,0,1,.994.986Zm9.865.534a2.561,2.561,0,1,1-2.552-2.561,2.438,2.438,0,0,1,1.8.75A2.467,2.467,0,0,1,218.995,475.218Zm-.986,0a1.568,1.568,0,0,0-1.567-1.575,1.571,1.571,0,1,0,0,3.142,1.567,1.567,0,0,0,1.567-1.567Zm8.013-2.944h-.9v.429h.615v.986h-.615v3.96h-.986v-3.96H223.7V472.7h.438v-.429a.985.985,0,0,1,.27-.716.969.969,0,0,1,.716-.278h.9Zm9.721,2.944a2.417,2.417,0,0,1-.05.489h-4a1.563,1.563,0,0,0,.573.783,1.541,1.541,0,0,0,.918.295,1.5,1.5,0,0,0,1.222-.581h1.138a2.475,2.475,0,0,1-.944,1.146,2.52,2.52,0,0,1-1.415.421,2.557,2.557,0,1,1,0-5.114,2.559,2.559,0,0,1,2.561,2.561Zm-1.07-.5a1.574,1.574,0,0,0-2.982,0Zm10.633,1.942a.952.952,0,0,1-.278.716.968.968,0,0,1-.716.27h-3.531v-.986h3.531v-.994h-2.629a.928.928,0,0,1-.986-.986v-.995a.979.979,0,0,1,.986-.986h3.286v.986h-3.286v.995h2.629a.959.959,0,0,1,.708.278.942.942,0,0,1,.286.708Zm9.655,0a.952.952,0,0,1-.278.716.97.97,0,0,1-.716.27h-3.53v-.986h3.53v-.994h-2.628a.928.928,0,0,1-.986-.986v-.995a.979.979,0,0,1,.986-.986h3.285v.986h-3.285v.995h2.628a.957.957,0,0,1,.708.278.941.941,0,0,1,.287.708Zm6.066.986h-.995V472.7h.995Zm9.965-2.431a2.562,2.562,0,1,1-2.553-2.561,2.441,2.441,0,0,1,1.8.75A2.467,2.467,0,0,1,270.993,475.218Zm-.986,0a1.571,1.571,0,1,0-2.679,1.112,1.532,1.532,0,0,0,1.112.455,1.568,1.568,0,0,0,1.567-1.567Zm10.6,2.431h-.994v-3.96H276.9v3.96h-.986V472.7h3.7a.875.875,0,0,1,.994.986Zm9.731,0h-.994v-3.96h-2.713v3.96h-.986V472.7h3.7a.875.875,0,0,1,.994.986Zm9.947-2.431a2.415,2.415,0,0,1-.05.489h-4a1.563,1.563,0,0,0,.573.783,1.541,1.541,0,0,0,.918.295,1.5,1.5,0,0,0,1.222-.581h1.137a2.471,2.471,0,0,1-.943,1.146,2.52,2.52,0,0,1-1.415.421,2.557,2.557,0,1,1,0-5.114,2.56,2.56,0,0,1,2.561,2.561Zm-1.07-.5a1.574,1.574,0,0,0-2.982,0Zm7.046,2.928h-.994V471.28h.994Z" transform="translate(-55.162 -386.736)" fill="#e50019" fill-rule="evenodd"/>
  </g>
</svg>
