<?xml version="1.0" encoding="utf-8"?>
<svg version="1.1" id="Layer_1" xmlns="http://www.w3.org/2000/svg" xmlns:xlink="http://www.w3.org/1999/xlink" x="0px" y="0px"
	 width="766.2px" height="297.3px" viewBox="0 0 766.2 297.3" style="enable-background:new 0 0 766.2 297.3;" xml:space="preserve"
	>
<style type="text/css">
	.st0{fill:none;stroke:#A3A3A3;stroke-miterlimit:10;stroke-dasharray:3;}
	.st1{fill:none;stroke:#A3A3A3;stroke-width:0.939;stroke-miterlimit:10;stroke-dasharray:3;}
	.st2{fill:none;stroke:#A3A3A3;stroke-width:0.5;stroke-miterlimit:10;stroke-dasharray:3;}
	.st3{fill:none;stroke:#CFCFCF;stroke-width:0.5;stroke-miterlimit:10;}
	.st4{fill:none;stroke:#1A1818;stroke-width:2;stroke-miterlimit:10;}
</style>
<g id="Сгруппировать_2124" transform="translate(-37.833 -121.844)">
	<line id="Линия_328" class="st0" x1="804.1" y1="400.9" x2="37.8" y2="400.9"/>
	<line id="Линия_329" class="st1" x1="83" y1="137.6" x2="758.9" y2="137.6"/>
	<line id="Линия_330" class="st1" x1="83" y1="162.3" x2="758.9" y2="162.3"/>
	<line id="Линия_331" class="st1" x1="83" y1="305.8" x2="758.9" y2="305.8"/>
	<line id="Линия_332" class="st1" x1="83" y1="280.6" x2="758.9" y2="280.6"/>
	<path id="Контур_107" class="st2" d="M295,229c19.3-9.3,128.7-63.3,139.3-66.7c-34,10-111.3,38.7-149.3,59.3"/>
	<path id="Контур_108" class="st3" d="M248.1,253c-16.7,12.7-60,34.7-86,42.7s-35.3,8.7-32.7,25.3s11.3,42.7,13.3,53.3
		s-5.3,20.7,36,26s139.3,5.3,146,3.3s11.3-30.7,26-29.3s65,10.7,69.2,16.7s6.2,11.8,37.5,13.9s156,6.8,194.7-3.2s52-16,57.3-27.3
		s9.3-20,8-34.7s-2-45.3-30.7-57.3s-76-12.7-109.3-16s-52.7-7.3-106-68c-8.7-11.3-22.7-27.3-22.7-27.3"/>
	<path id="Контур_109" class="st3" d="M247.8,247.3c-16.7,12.7-60,34.7-86,42.7s-35.3,8.7-32.7,25.3
		c2.7,16.7,11.3,42.7,13.3,53.3s-5.3,20.7,36,26s139.3,5.3,146,3.3s11.3-30.7,26-29.3s65,10.7,69.2,16.7s6.2,11.8,37.5,13.9
		s156,6.8,194.7-3.2s52-16,57.3-27.3s9.3-20,8-34.7s-2-45.3-30.7-57.3s-76-12.7-109.3-16s-52.7-7.3-106-68
		c-8.7-11.3-22.7-27.3-22.7-27.3"/>
	<path id="Контур_110" class="st3" d="M295.1,216c0,0-113.3-71.3-127.3-77.3c4.7,3.3,151.3,106.7,166.7,117.3
		c15.3,10.7,14.7,12.7,2.7,25.8c-10,10.2-12,14-36-3.2s-146-99.9-155.3-107.2s-0.7-17.3,4-24l9.1-11.8"/>
	<path id="Контур_111" class="st2" d="M440.3,171.3c-35.3,13.3-118.7,54-138,66.7"/>
	<path id="Контур_112" class="st3" d="M263,260.7c-25.3,17.3-81.3,56.7-132,53.3"/>
	<path id="Контур_113" class="st3" d="M341,287.4c42,12.6,179.3,52.6,246.7,49.2s98-6.7,113.3-18.7"/>
	<path id="Контур_114" class="st3" d="M345,227.3c40.7,28,180,127.1,344.7,86.9"/>
	<path id="Контур_115" class="st3" d="M308.8,318.1c1.3-10.2,29.3-19.5,33.2,4.4c-12.9-1.5-28.8-3.8-28.8-3.8"/>
	<path id="Контур_116" class="st3" d="M396.6,333.1c1.6-10.2,29.7-18.9,33.1,5c-12.9-1.8-28.7-4.4-28.7-4.4"/>
	<path id="Контур_117" class="st3" d="M487.8,359.1c1.6-10.2,29.7-18.9,33.1,5c-12.9-1.8-28.7-4.4-28.7-4.4"/>
	<path id="Контур_118" class="st3" d="M567.9,367.5c-0.3-9.4,23.4-22,30.6-1.1c-11.9,0.6-26.5,0.9-26.5,0.9"/>
	<g id="Сгруппировать_2123">
		<path id="Контур_119" class="st4" d="M128.7,304c0,0,20,8,60.7-10s66-38.7,66-38.7"/>
		<path id="Контур_120" class="st4" d="M296,232c19.3-9.3,128.7-63.3,139.3-66.7c-34,10-111.3,38.7-149.3,59.3"/>
		<path id="Контур_121" class="st4" d="M243.3,247.3c-16.7,12.7-60,34.7-86,42.7s-35.3,8.7-32.7,25.3S136,358,138,368.7
			s-5.3,25.7,36,31s139.3,0.3,146-1.7s11.3-30.7,26-29.3s65,10.7,69.2,16.7s6.2,11.8,37.5,13.9s156,6.8,194.7-3.2s52-16,57.3-27.3
			s9.3-20,8-34.7s-2-45.3-30.7-57.3s-76-12.7-109.3-16s-52.7-7.3-106-68c-8.7-11.3-22.7-27.3-22.7-27.3"/>
		<path id="Контур_122" class="st4" d="M443.3,173.3c-35.3,13.3-118.7,54-138,66.7"/>
		<path id="Контур_123" class="st4" d="M266,262.7c-25.3,17.3-81.3,56.7-132,53.3"/>
		<path id="Контур_124" class="st4" d="M134,336c13.3,0,63.3-12,112-12.7s123.3,20.7,197.3,39.3S622.7,387.3,656,370
			c19.9-10.3,38.9-22.4,56.7-36"/>
		<path id="Контур_125" class="st4" d="M340,289.4c42,12.6,179.3,52.6,246.7,49.2s98-6.7,113.3-18.7"/>
		<path id="Контур_126" class="st4" d="M344,229.3c40.7,28,180,127.1,344.7,86.9"/>
		<path id="Контур_127" class="st4" d="M290.7,218c0,0-113.3-71.3-127.3-77.3C168,144,314.7,247.3,330,258
			c15.3,10.7,14.7,12.7,2.7,25.8c-10,10.2-12,14-36-3.2s-146-99.9-155.3-107.2s-0.7-17.3,4-24l9.1-11.8"/>
		<path id="Контур_128" class="st4" d="M309.8,321.1c1.3-10.2,29.3-19.5,33.2,4.4c-12.9-1.5-28.8-3.8-28.8-3.8"/>
		<path id="Контур_129" class="st4" d="M397.6,336.1c1.6-10.2,29.7-18.9,33.1,5c-12.9-1.8-28.7-4.4-28.7-4.4"/>
		<path id="Контур_130" class="st4" d="M488.8,362.1c1.6-10.2,29.7-18.9,33.1,5c-12.9-1.8-28.7-4.4-28.7-4.4"/>
		<path id="Контур_131" class="st4" d="M568.9,370.5c-0.3-9.4,23.4-22,30.6-1.1c-11.9,0.6-26.5,0.9-26.5,0.9"/>
	</g>
	<path id="Контур_132" class="st3" d="M342,222.3c40.7,28,180,127.1,344.7,86.9"/>
	<line id="Линия_333" class="st0" x1="124.2" y1="121.8" x2="124.2" y2="419.2"/>
	<line id="Линия_334" class="st0" x1="712.9" y1="121.8" x2="712.9" y2="419.2"/>
</g>
</svg>
